<?xml version="1.0" encoding="UTF-8"?>
<svg id="banner" width="1280" height="360" version="1.1" viewBox="0 0 1280 360" xmlns="http://www.w3.org/2000/svg">
  <g transform="matrix(1 0 0 .989375 0 11.0628)" fill="#1a1a1a" stroke-width="13.033">
    <path d="m327.887 302.148h-127.887v-202.148h26.8806v178.254h101.006z" style="font-variant-ligatures:none"/>
    <path d="m732.851 302.148h-26.8806v-174.181l-56.205 118.519h-16.0198l-55.7977-118.519v174.181h-25.1157v-202.148h36.6554l53.897 112.546 52.1321-112.546h37.3342z" style="font-variant-ligatures:none"/>
    <path d="m911.386 161.092q0 13.4403-4.75163 24.98-4.61586 11.4039-13.033 19.8211-10.4536 10.4536-24.7084 15.7482-14.2549 5.15891-35.9766 5.15891h-26.8806v75.3472h-26.8806v-202.148h54.8473q18.1919 0 30.8177 3.1225 12.6258 2.98674 22.4005 9.50325 11.5397 7.73837 17.7847 19.278 6.38075 11.5397 6.38075 29.1886zm-27.9667 0.6788q0-10.4536-3.66554-18.1919t-11.1324-12.6258q-6.51652-4.20858-14.9337-5.97347-8.28141-1.90065-21.0429-1.90065h-26.6091v80.7776h22.672q16.2913 0 26.4733-2.85098 10.1821-2.98673 16.5628-9.36749 6.38076-6.51651 8.96021-13.7118 2.71522-7.19532 2.71522-16.1555z" style="font-variant-ligatures:none"/>
    <path d="m1080 302.148h-133.181v-202.148h133.181v23.8939h-106.301v55.3904h106.301v23.8939h-106.301v75.0757h106.301z" style="font-variant-ligatures:none"/>
  </g>
  <g transform="translate(1.07031 -310.656)" fill="#1a1a1a" stroke-width="1.00424" style="font-variant-ligatures:none" aria-label="Likelihood-free AMortized Posterior Estimation">
    <path d="m198.93 394.206h17.9799v-2.89221h-14.8948v-27.2349h-3.08502z"/>
    <path d="m225.152 364.85c0-1.10868-0.67485-2.12095-2.02454-2.12095-1.3497 0-2.02454 1.01227-2.02454 2.12095 0 1.15688 0.67484 2.21735 2.02454 2.21735 1.34969 0 2.02454-1.06047 2.02454-2.21735zm-3.51885 29.3559h2.98861v-22.7038l-2.98861 0.62664z"/>
    <path d="m234.648 383.215h0.0964l9.9299 10.9904h3.80807l-10.653-11.5688 10.6048-10.5083h-3.75987l-9.9299 10.1709h-0.0964v-21.2095l-2.98861 0.62665v32.4891h2.98861z"/>
    <path d="m253.688 383.504v-0.24101l14.9431-0.0964c0.33742-0.96407 0.48203-2.36197 0.48203-3.51885 0-5.01315-3.18142-8.14637-8.04997-8.14637-5.97722 0-10.4119 4.91674-10.4119 11.858 0 6.74848 4.2901 11.4724 10.653 11.4724 2.74759 0 5.20597-0.72305 7.0859-1.87993l-0.57844-2.74759c-1.68712 1.10867-3.95268 1.83172-6.41105 1.83172-4.62753 0-7.56794-3.51884-7.71255-8.532zm12.4365-2.65118-12.2437 0.0482c0.53023-3.66346 2.98861-6.70027 6.98949-6.70027 3.47064 0 5.30237 2.26556 5.30237 5.688 0 0.24101 0 0.72305-0.0482 0.96407z"/>
    <path d="m274.753 394.206h2.98862v-33.1157l-2.98862 0.62665z"/>
    <path d="m288.25 364.85c0-1.10868-0.67485-2.12095-2.02455-2.12095-1.34969 0-2.02454 1.01227-2.02454 2.12095 0 1.15688 0.67485 2.21735 2.02454 2.21735 1.3497 0 2.02455-1.06047 2.02455-2.21735zm-3.51885 29.3559h2.98861v-22.7038l-2.98861 0.62664z"/>
    <path d="m309.315 394.206h2.98861v-15.1359c0-4.82034-2.60299-7.56793-6.89309-7.56793-2.45837 0-5.35058 1.20508-7.66434 3.51884v-13.9308l-2.98861 0.62665v32.4891h2.98861v-16.7266c1.87993-1.87993 4.2901-3.13322 6.84488-3.13322 3.22963 0 4.72394 1.73532 4.72394 5.59159z"/>
    <path d="m339.153 383.119c0-7.0859-4.43472-11.617-10.6048-11.617-6.17004 0-10.894 4.67573-10.894 11.7134 0 7.0859 4.48292 11.617 10.653 11.617 6.12183 0 10.8458-4.67573 10.8458-11.7134zm-2.94041 0.0964c0 5.20597-3.08502 8.91763-7.76075 8.91763s-7.80895-3.61525-7.80895-9.01403c0-5.20597 3.08502-8.91763 7.76075-8.91763s7.80895 3.61525 7.80895 9.01403z"/>
    <path d="m364.749 383.119c0-7.0859-4.43471-11.617-10.6047-11.617-6.17004 0-10.894 4.67573-10.894 11.7134 0 7.0859 4.48291 11.617 10.653 11.617 6.12183 0 10.8458-4.67573 10.8458-11.7134zm-2.9404 0.0964c0 5.20597-3.08502 8.91763-7.76075 8.91763s-7.80895-3.61525-7.80895-9.01403c0-5.20597 3.08502-8.91763 7.76075-8.91763s7.80895 3.61525 7.80895 9.01403z"/>
    <path d="m385.139 361.717v11.135c-1.49431-0.72305-3.47065-1.20508-5.35058-1.20508-6.36285 0-10.9422 4.86854-10.9422 11.7134 0 6.74848 3.90447 11.4724 9.8817 11.4724 2.74759 0 4.91674-1.34969 6.41105-2.69939v2.07275h2.98861v-33.1157zm0 14.3164v13.5934c-1.54251 1.49431-3.61526 2.45838-5.88082 2.45838-4.48291 0-7.32691-3.61526-7.32691-8.77302 0-5.20597 2.9404-8.96583 7.71254-8.96583 2.12095 0 4.14549 0.57844 5.49519 1.68712z"/>
    <path d="m393.237 383.89h10.894v-2.7958h-10.894z"/>
    <path d="m420.472 361.62c-1.01227-0.53024-2.55478-0.96407-4.04909-0.96407-3.85627 0-6.50746 2.16915-6.65207 7.95356l-0.0482 3.47065-3.32603 0.77125-0.19282 1.87993 3.56705 0.24102v19.2332h2.94041v-19.3296h6.79668l0.14461-2.65118h-6.94129v-3.66346c0-3.61526 1.20509-5.15776 3.66346-5.15776 1.20509 0 2.36197 0.38562 3.37424 0.91586 0.0482 0.0482 0.67485-2.65119 0.72305-2.69939z"/>
    <path d="m426.497 394.206v-14.1718c1.73533-4.00088 3.90448-5.688 6.21824-5.688 1.30149 0 2.41017 0.38562 3.37424 0.96406l0.77125-2.79579c-1.01227-0.57844-2.36196-1.01227-3.85627-1.01227-2.8922 0-5.01315 1.83173-6.50746 4.72393v-4.72393l-2.98861 0.62664v22.0772z"/>
    <path d="m441.778 383.504v-0.24101l14.943-0.0964c0.33743-0.96407 0.48204-2.36197 0.48204-3.51885 0-5.01315-3.18143-8.14637-8.04997-8.14637-5.97722 0-10.4119 4.91674-10.4119 11.858 0 6.74848 4.29011 11.4724 10.653 11.4724 2.74759 0 5.20596-0.72305 7.0859-1.87993l-0.57844-2.74759c-1.68712 1.10867-3.95268 1.83172-6.41106 1.83172-4.62752 0-7.56793-3.51884-7.71254-8.532zm12.4365-2.65118-12.2437 0.0482c0.53024-3.66346 2.98861-6.70027 6.9895-6.70027 3.47064 0 5.30237 2.26556 5.30237 5.688 0 0.24101 0 0.72305-0.0482 0.96407z"/>
    <path d="m464.433 383.504v-0.24101l14.9431-0.0964c0.33742-0.96407 0.48203-2.36197 0.48203-3.51885 0-5.01315-3.18142-8.14637-8.04997-8.14637-5.97722 0-10.4119 4.91674-10.4119 11.858 0 6.74848 4.2901 11.4724 10.653 11.4724 2.74759 0 5.20597-0.72305 7.0859-1.87993l-0.57844-2.74759c-1.68712 1.10867-3.95268 1.83172-6.41105 1.83172-4.62753 0-7.56794-3.51884-7.71255-8.532zm12.4365-2.65118-12.2437 0.0482c0.53023-3.66346 2.98861-6.70027 6.98949-6.70027 3.47064 0 5.30237 2.26556 5.30237 5.688 0 0.24101 0 0.72305-0.0482 0.96407z"/>
    <path d="m515.722 394.206-11.2314-30.1271h-3.61525l-11.4242 30.1271h3.13322l3.18143-8.62841h13.6416l3.18142 8.62841zm-13.1113-27.0903 5.7362 15.6661h-11.5206z"/>
    <path d="m546.379 367.887 0.48203 26.3191h3.13323l-0.96407-30.1271h-4.09729l-10.0263 26.6083-10.1709-26.6083h-4.14549l-1.01227 30.1271h3.03681l0.53024-26.3673 9.97811 26.1744h3.37423z"/>
    <path d="m576.651 383.119c0-7.0859-4.43471-11.617-10.6048-11.617-6.17003 0-10.894 4.67573-10.894 11.7134 0 7.0859 4.48292 11.617 10.653 11.617 6.12183 0 10.8458-4.67573 10.8458-11.7134zm-2.94041 0.0964c0 5.20597-3.08502 8.91763-7.76075 8.91763s-7.80895-3.61525-7.80895-9.01403c0-5.20597 3.08502-8.91763 7.76075-8.91763s7.80895 3.61525 7.80895 9.01403z"/>
    <path d="m585.183 394.206v-14.1718c1.73532-4.00088 3.90448-5.688 6.21824-5.688 1.30149 0 2.41017 0.38562 3.37424 0.96406l0.77125-2.79579c-1.01227-0.57844-2.36196-1.01227-3.85627-1.01227-2.8922 0-5.01315 1.83173-6.50746 4.72393v-4.72393l-2.98861 0.62664v22.0772z"/>
    <path d="m611.068 393.772-0.53024-2.60299c-1.3497 0.57844-2.74759 1.06048-4.2419 1.06048-2.26556 0-3.32603-1.3979-3.22963-4.14549l0.33743-13.2077h7.32691l0.14461-2.65118h-7.37512l0.14461-5.15777h-2.844l-0.14461 5.01316-3.32603 0.77125-0.14461 1.87993 3.37424 0.19282-0.33743 13.0631c-0.14461 4.62753 1.68712 6.94129 5.92902 6.94129 1.59071 0 3.37424-0.43383 4.91675-1.15688z"/>
    <path d="m619.503 364.85c0-1.10868-0.67485-2.12095-2.02454-2.12095-1.3497 0-2.02455 1.01227-2.02455 2.12095 0 1.15688 0.67485 2.21735 2.02455 2.21735 1.34969 0 2.02454-1.06047 2.02454-2.21735zm-3.51885 29.3559h2.98861v-22.7038l-2.98861 0.62664z"/>
    <path d="m623.552 394.206h16.7266v-2.65119h-13.1595l13.1595-17.1122v-2.31376h-16.2928v2.65119h12.7257l-13.1595 17.064z"/>
    <path d="m646.256 383.504v-0.24101l14.943-0.0964c0.33742-0.96407 0.48203-2.36197 0.48203-3.51885 0-5.01315-3.18142-8.14637-8.04996-8.14637-5.97723 0-10.4119 4.91674-10.4119 11.858 0 6.74848 4.2901 11.4724 10.653 11.4724 2.7476 0 5.20597-0.72305 7.0859-1.87993l-0.57844-2.74759c-1.68712 1.10867-3.95268 1.83172-6.41105 1.83172-4.62753 0-7.56793-3.51884-7.71254-8.532zm12.4365-2.65118-12.2437 0.0482c0.53024-3.66346 2.98861-6.70027 6.98949-6.70027 3.47065 0 5.30238 2.26556 5.30238 5.688 0 0.24101 0 0.72305-0.0482 0.96407z"/>
    <path d="m682.167 361.717v11.135c-1.49431-0.72305-3.47065-1.20508-5.35058-1.20508-6.36285 0-10.9422 4.86854-10.9422 11.7134 0 6.74848 3.90448 11.4724 9.8817 11.4724 2.74759 0 4.91674-1.34969 6.41105-2.69939v2.07275h2.98861v-33.1157zm0 14.3164v13.5934c-1.54251 1.49431-3.61526 2.45838-5.88082 2.45838-4.48291 0-7.32691-3.61526-7.32691-8.77302 0-5.20597 2.94041-8.96583 7.71254-8.96583 2.12095 0 4.14549 0.57844 5.49519 1.68712z"/>
    <path d="m718.513 373.478c0-5.5434-3.80807-9.39967-11.7616-9.39967h-7.56793v30.1271h3.08501v-10.6048l4.09729-0.0482c7.51973-0.14461 12.1473-3.47065 12.1473-10.0745zm-3.18143 0.14461c0 4.67573-3.03681 6.89308-8.77301 7.03769l-4.29011 0.0964v-13.8344h4.38651c5.6398 0 8.67661 2.41017 8.67661 6.70028z"/>
    <path d="m743.145 383.119c0-7.0859-4.43472-11.617-10.6048-11.617-6.17004 0-10.894 4.67573-10.894 11.7134 0 7.0859 4.48292 11.617 10.653 11.617 6.12183 0 10.8458-4.67573 10.8458-11.7134zm-2.94041 0.0964c0 5.20597-3.08502 8.91763-7.76075 8.91763s-7.80895-3.61525-7.80895-9.01403c0-5.20597 3.08502-8.91763 7.76075-8.91763s7.80895 3.61525 7.80895 9.01403z"/>
    <path d="m761.944 388.18c0-4.09729-3.37423-5.54339-6.50745-6.45925-2.84401-0.91587-5.44699-1.63892-5.44699-4.1455 0-2.12095 1.73532-3.37423 4.43471-3.37423 1.92814 0 4.1455 0.62664 6.02543 1.63891l0.86766-2.69939c-1.87993-0.96407-4.2419-1.63891-6.70027-1.63891-4.1455 0-7.47153 2.36196-7.47153 6.36284 0 3.85628 3.37424 5.39879 6.41105 6.26645 2.7476 0.91586 5.54339 1.59071 5.54339 4.2901 0 2.41017-2.31376 3.71166-4.96495 3.71166-2.26556 0-4.62752-0.72305-6.50746-2.02454l-0.81945 2.74759c1.87993 1.20509 4.57932 1.97634 7.23051 1.97634 4.43471 0 7.90535-2.65119 7.90535-6.65207z"/>
    <path d="m778.333 393.772-0.53024-2.60299c-1.3497 0.57844-2.74759 1.06048-4.2419 1.06048-2.26556 0-3.32603-1.3979-3.22963-4.14549l0.33743-13.2077h7.32691l0.14461-2.65118h-7.37512l0.14461-5.15777h-2.844l-0.14461 5.01316-3.32603 0.77125-0.14461 1.87993 3.37424 0.19282-0.33743 13.0631c-0.14461 4.62753 1.68712 6.94129 5.92902 6.94129 1.59071 0 3.37424-0.43383 4.91675-1.15688z"/>
    <path d="m784.551 383.504v-0.24101l14.9431-0.0964c0.33742-0.96407 0.48203-2.36197 0.48203-3.51885 0-5.01315-3.18142-8.14637-8.04997-8.14637-5.97722 0-10.4119 4.91674-10.4119 11.858 0 6.74848 4.2901 11.4724 10.653 11.4724 2.74759 0 5.20597-0.72305 7.0859-1.87993l-0.57844-2.74759c-1.68712 1.10867-3.95268 1.83172-6.41105 1.83172-4.62753 0-7.56794-3.51884-7.71255-8.532zm12.4365-2.65118-12.2437 0.0482c0.53023-3.66346 2.98861-6.70027 6.98949-6.70027 3.47064 0 5.30237 2.26556 5.30237 5.688 0 0.24101 0 0.72305-0.0482 0.96407z"/>
    <path d="m808.605 394.206v-14.1718c1.73532-4.00088 3.90447-5.688 6.21824-5.688 1.30149 0 2.41017 0.38562 3.37424 0.96406l0.77125-2.79579c-1.01227-0.57844-2.36197-1.01227-3.85627-1.01227-2.89221 0-5.01316 1.83173-6.50746 4.72393v-4.72393l-2.98861 0.62664v22.0772z"/>
    <path d="m826.343 364.85c0-1.10868-0.67485-2.12095-2.02454-2.12095-1.3497 0-2.02455 1.01227-2.02455 2.12095 0 1.15688 0.67485 2.21735 2.02455 2.21735 1.34969 0 2.02454-1.06047 2.02454-2.21735zm-3.51885 29.3559h2.98861v-22.7038l-2.98861 0.62664z"/>
    <path d="m852.903 383.119c0-7.0859-4.43472-11.617-10.6048-11.617-6.17004 0-10.894 4.67573-10.894 11.7134 0 7.0859 4.48292 11.617 10.653 11.617 6.12183 0 10.8458-4.67573 10.8458-11.7134zm-2.94041 0.0964c0 5.20597-3.08502 8.91763-7.76075 8.91763s-7.80895-3.61525-7.80895-9.01403c0-5.20597 3.08502-8.91763 7.76075-8.91763s7.80895 3.61525 7.80895 9.01403z"/>
    <path d="m861.435 394.206v-14.1718c1.73532-4.00088 3.90447-5.688 6.21824-5.688 1.30149 0 2.41017 0.38562 3.37424 0.96406l0.77125-2.79579c-1.01227-0.57844-2.36197-1.01227-3.85627-1.01227-2.89221 0-5.01316 1.83173-6.50746 4.72393v-4.72393l-2.98861 0.62664v22.0772z"/>
    <path d="m882.693 394.206h18.2209v-2.844h-15.1359v-10.8458h12.6293v-2.7958h-12.6293v-10.7976h15.1359v-2.844h-18.2209z"/>
    <path d="m920.002 388.18c0-4.09729-3.37424-5.54339-6.50746-6.45925-2.844-0.91587-5.44699-1.63892-5.44699-4.1455 0-2.12095 1.73533-3.37423 4.43472-3.37423 1.92813 0 4.14549 0.62664 6.02542 1.63891l0.86766-2.69939c-1.87993-0.96407-4.2419-1.63891-6.70027-1.63891-4.14549 0-7.47153 2.36196-7.47153 6.36284 0 3.85628 3.37424 5.39879 6.41106 6.26645 2.74759 0.91586 5.54339 1.59071 5.54339 4.2901 0 2.41017-2.31377 3.71166-4.96495 3.71166-2.26556 0-4.62753-0.72305-6.50746-2.02454l-0.81946 2.74759c1.87993 1.20509 4.57932 1.97634 7.23051 1.97634 4.43471 0 7.90536-2.65119 7.90536-6.65207z"/>
    <path d="m936.392 393.772-0.53024-2.60299c-1.34969 0.57844-2.74759 1.06048-4.2419 1.06048-2.26556 0-3.32603-1.3979-3.22962-4.14549l0.33742-13.2077h7.32692l0.14461-2.65118h-7.37512l0.14461-5.15777h-2.844l-0.14461 5.01316-3.32604 0.77125-0.14461 1.87993 3.37424 0.19282-0.33742 13.0631c-0.14462 4.62753 1.68711 6.94129 5.92901 6.94129 1.59072 0 3.37424-0.43383 4.91675-1.15688z"/>
    <path d="m944.827 364.85c0-1.10868-0.67484-2.12095-2.02454-2.12095-1.34969 0-2.02454 1.01227-2.02454 2.12095 0 1.15688 0.67485 2.21735 2.02454 2.21735 1.3497 0 2.02454-1.06047 2.02454-2.21735zm-3.51884 29.3559h2.98861v-22.7038l-2.98861 0.62664z"/>
    <path d="m978.907 394.206h2.98861v-15.0877c0-4.86854-2.55478-7.61613-6.79668-7.61613-2.55478 0-5.35058 1.20508-7.80895 3.66345-1.10868-2.45837-3.22963-3.66345-5.97722-3.66345-2.26556 0-4.72393 0.96406-6.98949 3.03681v-3.03681l-2.98862 0.62664v22.0772h2.98862v-17.305c1.68711-1.49431 3.80806-2.55478 6.12183-2.55478 3.22962 0 4.67573 1.78352 4.67573 5.63979v14.22h2.98861v-15.0395c0-0.53024-0.0482-1.63892-0.0964-1.97634 1.68712-1.59071 3.85627-2.844 6.21824-2.844 3.22963 0 4.67573 1.78352 4.67573 5.63979z"/>
    <path d="m1000.21 382.878v6.45925c-1.3497 1.54251-3.37425 2.89221-5.73621 2.89221-2.65119 0-4.53112-1.49431-4.53112-3.85627 0-2.94041 2.69939-4.57933 10.2673-5.49519zm0.048 8.67661h0.1446c0.3374 2.16915 1.9281 3.32604 4.8203 3.13322l0.1929-2.45837c-1.9282 0.0482-2.2174-0.62665-2.2174-2.21736v-10.6048c0.048-5.59159-2.7476-7.90535-7.90535-7.90535-2.89221 0-6.26645 1.25328-8.19458 2.65118l0.67484 2.7958c1.92814-1.3979 4.82034-2.65119 7.23051-2.65119 3.66346 0 5.20598 1.78353 5.20598 5.25417v1.3015c-10.2673 0.53023-13.4006 3.90447-13.4006 7.85715 0 3.51885 2.9404 6.12183 6.98949 6.12183 2.65119 0 4.96495-1.3979 6.45926-3.27783z"/>
    <path d="m1020.84 393.772-0.5302-2.60299c-1.3497 0.57844-2.7476 1.06048-4.2419 1.06048-2.2656 0-3.3261-1.3979-3.2297-4.14549l0.3375-13.2077h7.3269l0.1446-2.65118h-7.3751l0.1446-5.15777h-2.844l-0.1446 5.01316-3.3261 0.77125-0.1446 1.87993 3.3743 0.19282-0.3375 13.0631c-0.1446 4.62753 1.6872 6.94129 5.9291 6.94129 1.5907 0 3.3742-0.43383 4.9167-1.15688z"/>
    <path d="m1029.28 364.85c0-1.10868-0.6749-2.12095-2.0246-2.12095s-2.0245 1.01227-2.0245 2.12095c0 1.15688 0.6748 2.21735 2.0245 2.21735s2.0246-1.06047 2.0246-2.21735zm-3.5189 29.3559h2.9886v-22.7038l-2.9886 0.62664z"/>
    <path d="m1055.84 383.119c0-7.0859-4.4347-11.617-10.6047-11.617-6.1701 0-10.894 4.67573-10.894 11.7134 0 7.0859 4.4829 11.617 10.6529 11.617 6.1219 0 10.8458-4.67573 10.8458-11.7134zm-2.9404 0.0964c0 5.20597-3.085 8.91763-7.7608 8.91763-4.6757 0-7.8089-3.61525-7.8089-9.01403 0-5.20597 3.085-8.91763 7.7607-8.91763 4.6758 0 7.809 3.61525 7.809 9.01403z"/>
    <path d="m1075.94 394.206h2.9886v-15.1359c0-4.82034-2.603-7.56793-7.0377-7.56793-2.3138 0-5.206 1.30149-7.5198 3.61525v-3.61525l-2.9886 0.62664v22.0772h2.9886v-16.7266c1.88-1.87993 4.2419-3.13322 6.7003-3.13322 3.326 0 4.8686 1.73532 4.8686 5.59159z"/>
  </g>
  <g transform="matrix(5.9263 0 0 5.9263 196.289 59.8243)">
    <path d="m44.8082 26.8174c-0.455921 0-1.16786 0.427412-1.58179 0.950062-0.422688 0.533714-1.00485 1.83137-1.13285 2.52539l-0.08196 0.446013h-1.74933l-0.195099-0.683198c-0.797766-2.79223-2.67996-4.08471-3.78289-2.59715-0.849088 1.14519-0.677719 2.45477 0.423506 3.23029 0.616187 0.433901 0.992559 0.58869 1.94302 0.800684 0.698514 0.155847 0.71444 0.168241 0.795536 0.625164 0.04564 0.256332 0.08499 2.72137 0.08922 5.47792 0.0059 4.39181 0.03011 5.035 0.193691 5.19864 0.240436 0.240548 0.459254 0.23618 0.708532-0.01301 0.182326-0.182326 0.195271-0.648816 0.147258-5.43583-0.02858-2.88023-0.0885-5.31733-0.132726-5.41544-0.06639-0.147082 0.03905-0.177739 0.604171-0.177739h0.684617v5.51203c0 5.12058 0.0148 5.52191 0.208116 5.64384 0.15158 0.09569 0.264059 0.09558 0.415636 0 0.19142-0.120607 0.213377-0.558982 0.273422-5.52495 0.03602-2.96656 0.108221-5.48749 0.160987-5.60186 0.05276-0.114331 0.218154-0.207413 0.367689-0.207413 0.502447 0 1.79807-0.469592 2.30122-0.834091 0.68767-0.498141 0.96552-0.994261 0.966115-1.72541 0-1.07686-0.827142-2.19383-1.6261-2.19383zm-7.38239 1.06976c0.0056-1.96e-4 0.01119 0 0.01676 0 0.533011 0 1.24301 1.04215 1.67828 2.46513 0.04504 0.147049 0.03743 0.265307-0.01607 0.262522-0.363537-0.01932-1.63321-0.55476-1.95816-0.826015-0.334088-0.278946-0.391216-0.40208-0.380004-0.815926 0.0156-0.597473 0.304893-1.07108 0.659179-1.08571zm7.3193 0.01596h6.64e-4c0.338529-0.0044 0.622265 0.314183 0.699855 0.895763 0.07078 0.53082-0.222518 0.990664-0.833285 1.30685-0.206829 0.106905-0.635459 0.263556-0.952987 0.347404l-0.578033 0.152303 0.07399-0.371323c0.110136-0.550721 0.582769-1.52169 0.954398-1.96109 0.209786-0.24806 0.432208-0.366826 0.635362-0.369913zm-6.90367 15.3297c-0.01364 0-0.02572 0.0013-0.03593 3e-3 -0.267541 0.05263-0.456881 0.377464-0.36285 0.622437 0.09419 0.245438 1.40264 0.871423 2.11289 1.01092 1.47652 0.289982 3.25624 0.08584 4.59942-0.527567 0.593776-0.271161 0.629309-0.311759 0.594081-0.676739-0.04954-0.513487-0.286141-0.54567-1.2035-0.16401-1.76604 0.734737-3.42724 0.714247-5.03978-0.06217-0.250331-0.120489-0.532546-0.206859-0.66433-0.206002zm0.564709 1.85905c-0.12701-9.96e-4 -0.198148 0.04592-0.30622 0.133433-0.5543 0.448838 0.02317 0.900546 1.62105 1.26829 0.942575 0.216919 2.3172 0.138628 3.44477-0.196107 0.935119-0.277615 1.20631-0.515485 1.07158-0.940068-0.103351-0.325647-0.395693-0.348789-1.07048-0.08499-0.391973 0.153303-0.998408 0.250941-1.78234 0.287151-1.03452 0.0478-1.30771 0.0166-2.11097-0.241325-0.479435-0.153977-0.714108-0.225211-0.867401-0.226495zm0.543715 1.78284c-0.32966 0-0.476593 0.142804-0.476593 0.440264 0 0.350399 0.251635 0.498075 1.22792 0.720846 0.838275 0.191268 2.34764 0.145047 3.16862-0.09699 0.471282-0.138966 0.539128-0.201713 0.571271-0.529176 0.04494-0.457726-0.234305-0.582367-0.893941-0.399188-0.640388 0.177834-2.24528 0.155572-3.00572-0.04168-0.240277-0.06232-0.436198-0.09413-0.591559-0.09417z" fill="#1a1a1a" stroke-width=".118826"/>
    <path d="m41.1058 8.46667-4.76575 4.76414c-2.62116 2.62026-4.86011 4.86582-4.97549 4.99012-1.9404 2.09034-3.16059 4.83006-3.42923 7.69951-0.225801 2.41193 0.207971 4.8356 1.25437 7.00874 0.449478 0.933464 1.01212 1.81019 1.66828 2.61098 0.01288-0.0095 0.02675-0.01763 0.03977-0.02695-0.01218 0.0087-0.02466 0.01706-0.03674 0.02596 0.839114 1.02409 1.83139 1.92349 2.93527 2.65821 0.0017 0.0013 0.0033 0.0027 0.0052 0.0038 0.214921 0.150404 0.352454 0.408937 0.35245 0.691175v1.60157a1.66373 1.66373 0 0 0-0.0023 0.06217 1.66373 1.66373 0 0 0 1.66374 1.66364 1.66373 1.66373 0 0 0 1.66364-1.66364h0.0023v-1.65688c3e-6 -0.0023 0-0.0046 0-7e-3 0-0.176239-0.01102-0.349931-0.0323-0.520398-0.02128-0.170469-0.05289-0.337706-0.09417-0.501122-0.07224-0.286006-0.17415-0.560185-0.302183-0.819159-0.01829-0.03697-0.03709-0.07367-0.05642-0.110013-0.01935-0.03634-0.03928-0.07231-0.05965-0.107995-0.02038-0.03569-0.04129-0.07106-0.06268-0.106076-0.02141-0.03502-0.04332-0.06964-0.06571-0.103962-0.0224-0.03433-0.04536-0.06823-0.06874-0.101841-0.02337-0.03361-0.04723-0.06684-0.07156-0.09972-0.09734-0.131588-0.202344-0.257214-0.314199-0.376266-0.02795-0.02974-0.05637-0.059-0.08519-0.08791-0.172966-0.173616-0.361114-0.33211-0.562389-0.473161-0.04323-0.0303-0.0871-0.05975-0.131512-0.08842-0.176368-0.118232-0.349516-0.239756-0.514648-0.368293-0.83863-0.652822-1.57239-1.43082-2.1473-2.2769-0.825561-1.21496-1.35958-2.56315-1.59713-4.03168-0.09053-0.559687-0.107911-0.805517-0.108303-1.53072-6.64e-4 -0.709033 0.01019-0.875164 0.09125-1.4425 0.248335-1.73813 0.975292-3.41141 2.07554-4.77706 0.303435-0.376624 0.718466-0.800232 4.09174-4.17672l3.63997-3.6435v-2.34109zm4.64696 5.29564c-0.324144 0.0046-0.648328 0.0996-0.924934 0.281193-0.343236 0.22533-0.613455 0.600321-0.72377 1.00436-0.0547 0.20036-0.05876 0.640007-0.0078 0.840754 0.170075 0.66968 0.693476 1.16536 1.36509 1.29292 0.194995 0.037 0.562611 0.02367 0.75143-0.02725 0.304155-0.08203 0.569283-0.238069 0.788977-0.464182 0.370049-0.380857 0.538623-0.860225 0.485279-1.38013-0.06292-0.613054-0.432523-1.12768-1.00043-1.39295-0.229758-0.107318-0.481857-0.158345-0.733967-0.154727zm4.70004 4.05257-1.16585 1.16575c-0.641235 0.641168-1.16382 1.17083-1.16131 1.17706 0.0023 0.0062 0.111692 0.128345 0.242739 0.271302 0.82359 0.898488 1.39483 1.77869 1.86187 2.86916 0.388003 0.905927 0.638702 1.90292 0.751124 2.98654 0.03147 0.302901 0.0316 1.48854 0 1.78082-0.142362 1.32638-0.455373 2.42277-1.0093 3.5347-0.489569 0.982727-1.07317 1.78982-1.86934 2.58545-0.505231 0.50487-1.59935 1.30584-1.59935 1.30584s0.01617-0.0078 0.02058-0.01c-0.0081 0.0056-0.01633 0.01109-0.02443 0.01676-0.201275 0.141051-0.38942 0.299548-0.562386 0.473168-0.02881 0.02891-0.05723 0.05816-0.08519 0.08791-0.111855 0.119048-0.216856 0.244678-0.314199 0.376269-0.02433 0.03289-0.0482 0.06611-0.07156 0.09972-0.02337 0.03361-0.04634 0.06751-0.06873 0.101837-0.0224 0.03432-0.04432 0.06894-0.06571 0.103959-0.02138 0.03501-0.0423 0.0704-0.06268 0.106083-0.02038 0.03569-0.04031 0.07165-0.05965 0.107992-0.01932 0.03634-0.03815 0.07304-0.05642 0.110016-0.128033 0.25897-0.22995 0.533153-0.30219 0.819155-0.04128 0.163417-0.07289 0.33065-0.09416 0.501119-0.02128 0.170467-0.0323 0.344163-0.0323 0.520404 0 0.0023-1e-5 0.0046 0 7e-3v1.65688h0.0023a1.66373 1.66373 0 0 0 1.66364 1.66364 1.66373 1.66373 0 0 0 1.66374-1.66364 1.66373 1.66373 0 0 0-0.0023-0.06217v-1.60157c-7e-6 -0.282239 0.137526-0.540771 0.35245-0.691176 2e-3 -0.0013 0.0034-0.0027 0.0052-0.0038 1.10388-0.734724 2.09616-1.63413 2.93527-2.65822 1.6427-2.00481 2.68014-4.47353 2.93184-7.1347 0.331861-3.50875-0.746604-7.00315-2.99371-9.70006-0.228487-0.274232-0.567621-0.648065-0.737599-0.813201z" fill="#ee4c2c" stroke-width=".0180801"/>
  </g>
</svg>
