<?xml version="1.0" encoding="UTF-8"?>
<svg width="100" height="150" version="1.1" viewBox="0 0 26.4583 39.6875" xmlns="http://www.w3.org/2000/svg">
  <g transform="translate(-27.8772 -8.46667)">
    <path d="m44.8082 26.8174c-0.455921 0-1.16786 0.427412-1.58179 0.950062-0.422688 0.533714-1.00485 1.83137-1.13285 2.52539l-0.08196 0.446013h-1.74933l-0.195099-0.683198c-0.797766-2.79223-2.67996-4.08471-3.78289-2.59715-0.849088 1.14519-0.677719 2.45477 0.423506 3.23029 0.616187 0.433901 0.992559 0.58869 1.94302 0.800684 0.698514 0.155847 0.71444 0.168241 0.795536 0.625164 0.04564 0.256332 0.08499 2.72137 0.08922 5.47792 0.0059 4.39181 0.03011 5.035 0.193691 5.19864 0.240436 0.240548 0.459254 0.23618 0.708532-0.01301 0.182326-0.182326 0.195271-0.648816 0.147258-5.43583-0.02858-2.88023-0.0885-5.31733-0.132726-5.41544-0.06639-0.147082 0.03905-0.177739 0.604171-0.177739h0.684617v5.51203c0 5.12058 0.0148 5.52191 0.208116 5.64384 0.15158 0.09569 0.264059 0.09558 0.415636 0 0.19142-0.120607 0.213377-0.558982 0.273422-5.52495 0.03602-2.96656 0.108221-5.48749 0.160987-5.60186 0.05276-0.114331 0.218154-0.207413 0.367689-0.207413 0.502447 0 1.79807-0.469592 2.30122-0.834091 0.68767-0.498141 0.96552-0.994261 0.966115-1.72541 0-1.07686-0.827142-2.19383-1.6261-2.19383zm-7.38239 1.06976c0.0056-1.96e-4 0.01119 0 0.01676 0 0.533011 0 1.24301 1.04215 1.67828 2.46513 0.04504 0.147049 0.03743 0.265307-0.01607 0.262522-0.363537-0.01932-1.63321-0.55476-1.95816-0.826015-0.334088-0.278946-0.391216-0.40208-0.380004-0.815926 0.0156-0.597473 0.304893-1.07108 0.659179-1.08571zm7.3193 0.01596h6.64e-4c0.338529-0.0044 0.622265 0.314183 0.699855 0.895763 0.07078 0.53082-0.222518 0.990664-0.833285 1.30685-0.206829 0.106905-0.635459 0.263556-0.952987 0.347404l-0.578033 0.152303 0.07399-0.371323c0.110136-0.550721 0.582769-1.52169 0.954398-1.96109 0.209786-0.24806 0.432208-0.366826 0.635362-0.369913zm-6.90367 15.3297c-0.01364 0-0.02572 0.0013-0.03593 3e-3 -0.267541 0.05263-0.456881 0.377464-0.36285 0.622437 0.09419 0.245438 1.40264 0.871423 2.11289 1.01092 1.47652 0.289982 3.25624 0.08584 4.59942-0.527567 0.593776-0.271161 0.629309-0.311759 0.594081-0.676739-0.04954-0.513487-0.286141-0.54567-1.2035-0.16401-1.76604 0.734737-3.42724 0.714247-5.03978-0.06217-0.250331-0.120489-0.532546-0.206859-0.66433-0.206002zm0.564709 1.85905c-0.12701-9.96e-4 -0.198148 0.04592-0.30622 0.133433-0.5543 0.448838 0.02317 0.900546 1.62105 1.26829 0.942575 0.216919 2.3172 0.138628 3.44477-0.196107 0.935119-0.277615 1.20631-0.515485 1.07158-0.940068-0.103351-0.325647-0.395693-0.348789-1.07048-0.08499-0.391973 0.153303-0.998408 0.250941-1.78234 0.287151-1.03452 0.0478-1.30771 0.0166-2.11097-0.241325-0.479435-0.153977-0.714108-0.225211-0.867401-0.226495zm0.543715 1.78284c-0.32966 0-0.476593 0.142804-0.476593 0.440264 0 0.350399 0.251635 0.498075 1.22792 0.720846 0.838275 0.191268 2.34764 0.145047 3.16862-0.09699 0.471282-0.138966 0.539128-0.201713 0.571271-0.529176 0.04494-0.457726-0.234305-0.582367-0.893941-0.399188-0.640388 0.177834-2.24528 0.155572-3.00572-0.04168-0.240277-0.06232-0.436198-0.09413-0.591559-0.09417z" fill="#e6e6e6" stroke-width=".118826"/>
    <path d="m41.1058 8.46667-4.76575 4.76414c-2.62116 2.62026-4.86011 4.86582-4.97549 4.99012-1.9404 2.09034-3.16059 4.83006-3.42923 7.69951-0.225801 2.41193 0.207971 4.8356 1.25437 7.00874 0.449478 0.933464 1.01212 1.81019 1.66828 2.61098 0.01288-0.0095 0.02675-0.01763 0.03977-0.02695-0.01218 0.0087-0.02466 0.01706-0.03674 0.02596 0.839114 1.02409 1.83139 1.92349 2.93527 2.65821 0.0017 0.0013 0.0033 0.0027 0.0052 0.0038 0.214921 0.150404 0.352454 0.408937 0.35245 0.691175v1.60157a1.66373 1.66373 0 0 0-0.0023 0.06217 1.66373 1.66373 0 0 0 1.66374 1.66364 1.66373 1.66373 0 0 0 1.66364-1.66364h0.0023v-1.65688c3e-6 -0.0023 0-0.0046 0-7e-3 0-0.176239-0.01102-0.349931-0.0323-0.520398-0.02128-0.170469-0.05289-0.337706-0.09417-0.501122-0.07224-0.286006-0.17415-0.560185-0.302183-0.819159-0.01829-0.03697-0.03709-0.07367-0.05642-0.110013-0.01935-0.03634-0.03928-0.07231-0.05965-0.107995-0.02038-0.03569-0.04129-0.07106-0.06268-0.106076-0.02141-0.03502-0.04332-0.06964-0.06571-0.103962-0.0224-0.03433-0.04536-0.06823-0.06874-0.101841-0.02337-0.03361-0.04723-0.06684-0.07156-0.09972-0.09734-0.131588-0.202344-0.257214-0.314199-0.376266-0.02795-0.02974-0.05637-0.059-0.08519-0.08791-0.172966-0.173616-0.361114-0.33211-0.562389-0.473161-0.04323-0.0303-0.0871-0.05975-0.131512-0.08842-0.176368-0.118232-0.349516-0.239756-0.514648-0.368293-0.83863-0.652822-1.57239-1.43082-2.1473-2.2769-0.825561-1.21496-1.35958-2.56315-1.59713-4.03168-0.09053-0.559687-0.107911-0.805517-0.108303-1.53072-6.64e-4 -0.709033 0.01019-0.875164 0.09125-1.4425 0.248335-1.73813 0.975292-3.41141 2.07554-4.77706 0.303435-0.376624 0.718466-0.800232 4.09174-4.17672l3.63997-3.6435v-2.34109zm4.64696 5.29564c-0.324144 0.0046-0.648328 0.0996-0.924934 0.281193-0.343236 0.22533-0.613455 0.600321-0.72377 1.00436-0.0547 0.20036-0.05876 0.640007-0.0078 0.840754 0.170075 0.66968 0.693476 1.16536 1.36509 1.29292 0.194995 0.037 0.562611 0.02367 0.75143-0.02725 0.304155-0.08203 0.569283-0.238069 0.788977-0.464182 0.370049-0.380857 0.538623-0.860225 0.485279-1.38013-0.06292-0.613054-0.432523-1.12768-1.00043-1.39295-0.229758-0.107318-0.481857-0.158345-0.733967-0.154727zm4.70004 4.05257-1.16585 1.16575c-0.641235 0.641168-1.16382 1.17083-1.16131 1.17706 0.0023 0.0062 0.111692 0.128345 0.242739 0.271302 0.82359 0.898488 1.39483 1.77869 1.86187 2.86916 0.388003 0.905927 0.638702 1.90292 0.751124 2.98654 0.03147 0.302901 0.0316 1.48854 0 1.78082-0.142362 1.32638-0.455373 2.42277-1.0093 3.5347-0.489569 0.982727-1.07317 1.78982-1.86934 2.58545-0.505231 0.50487-1.59935 1.30584-1.59935 1.30584s0.01617-0.0078 0.02058-0.01c-0.0081 0.0056-0.01633 0.01109-0.02443 0.01676-0.201275 0.141051-0.38942 0.299548-0.562386 0.473168-0.02881 0.02891-0.05723 0.05816-0.08519 0.08791-0.111855 0.119048-0.216856 0.244678-0.314199 0.376269-0.02433 0.03289-0.0482 0.06611-0.07156 0.09972-0.02337 0.03361-0.04634 0.06751-0.06873 0.101837-0.0224 0.03432-0.04432 0.06894-0.06571 0.103959-0.02138 0.03501-0.0423 0.0704-0.06268 0.106083-0.02038 0.03569-0.04031 0.07165-0.05965 0.107992-0.01932 0.03634-0.03815 0.07304-0.05642 0.110016-0.128033 0.25897-0.22995 0.533153-0.30219 0.819155-0.04128 0.163417-0.07289 0.33065-0.09416 0.501119-0.02128 0.170467-0.0323 0.344163-0.0323 0.520404 0 0.0023-1e-5 0.0046 0 7e-3v1.65688h0.0023a1.66373 1.66373 0 0 0 1.66364 1.66364 1.66373 1.66373 0 0 0 1.66374-1.66364 1.66373 1.66373 0 0 0-0.0023-0.06217v-1.60157c-7e-6 -0.282239 0.137526-0.540771 0.35245-0.691176 2e-3 -0.0013 0.0034-0.0027 0.0052-0.0038 1.10388-0.734724 2.09616-1.63413 2.93527-2.65822 1.6427-2.00481 2.68014-4.47353 2.93184-7.1347 0.331861-3.50875-0.746604-7.00315-2.99371-9.70006-0.228487-0.274232-0.567621-0.648065-0.737599-0.813201z" fill="#ee4c2c" stroke-width=".0180801"/>
  </g>
</svg>
