<?xml version="1.0" encoding="UTF-8" standalone="no"?>
<svg
   id="logo"
   width="100"
   height="150"
   version="1.1"
   viewBox="0 0 100 150"
   xmlns="http://www.w3.org/2000/svg"
   xmlns:svg="http://www.w3.org/2000/svg">
  <path
     id="filament"
     fill="#e6e6e6"
     d="m 63.991462,69.356985 c -1.723165,0 -4.413957,1.615414 -5.978416,3.590781 -1.59756,2.017184 -3.797856,6.921702 -4.281635,9.544766 l -0.30977,1.685717 H 46.810004 L 46.072622,81.596087 C 43.057445,71.042792 35.943645,66.157836 31.775093,71.780101 c -3.209149,4.328271 -2.561456,9.277858 1.600652,12.208952 2.328894,1.639938 3.751402,2.224967 7.343693,3.026203 2.640052,0.589027 2.700245,0.635871 3.006749,2.362821 0.172498,0.968812 0.321222,10.285478 0.337209,20.703923 0.0223,16.59894 0.113802,19.02989 0.73206,19.64837 0.908734,0.90916 1.735762,0.89265 2.677915,-0.0492 0.689106,-0.68911 0.738032,-2.45222 0.556565,-20.54485 -0.108019,-10.885883 -0.334488,-20.096956 -0.501641,-20.467765 -0.250923,-0.5559 0.14759,-0.671769 2.28348,-0.671769 h 2.587527 v 20.832874 c 0,19.35334 0.05594,20.87017 0.78658,21.33101 0.5729,0.36167 0.998017,0.36124 1.570907,0 0.723476,-0.45583 0.806463,-2.11268 1.033405,-20.88167 0.136138,-11.212176 0.409024,-20.740087 0.608454,-21.17235 0.199408,-0.432117 0.824519,-0.783922 1.38969,-0.783922 1.899011,0 6.795852,-1.774834 8.69752,-3.152465 2.599066,-1.882735 3.649207,-3.757832 3.651456,-6.521225 0,-4.070016 -3.126204,-8.291629 -6.145886,-8.291629 z m -27.901931,4.043182 c 0.02117,-7.41e-4 0.04229,0 0.06334,0 2.014529,0 4.697988,3.93883 6.343102,9.317013 0.17023,0.555774 0.141468,1.002733 -0.06074,0.992207 -1.373997,-0.07302 -6.172759,-2.096726 -7.400916,-3.121941 -1.262694,-1.054283 -1.47861,-1.51967 -1.436234,-3.08381 0.05896,-2.258163 1.152351,-4.048172 2.491383,-4.103465 z m 27.66348,0.06032 h 0.0025 c 1.279479,-0.01663 2.351866,1.187461 2.64512,3.385555 0.267515,2.006247 -0.841013,3.744237 -3.149422,4.939269 -0.781716,0.404049 -2.401733,0.996116 -3.601839,1.313021 l -2.18469,0.575634 0.279647,-1.403424 c 0.416262,-2.081463 2.20259,-5.751261 3.607172,-7.411984 0.792891,-0.937548 1.633541,-1.386426 2.401366,-1.398093 z M 37.660415,131.39942 c -0.05155,0 -0.09721,0.005 -0.135798,0.0113 -1.011178,0.19891 -1.726793,1.42663 -1.371401,2.3525 0.355994,0.92765 5.301314,3.29357 7.985722,3.82081 5.580544,1.09598 12.307041,0.32442 17.383624,-1.99396 2.244192,-1.02486 2.37849,-1.17829 2.245345,-2.55775 -0.187238,-1.94073 -1.081478,-2.06237 -4.548659,-0.61988 -6.674793,2.77695 -12.953341,2.69951 -19.047977,-0.23497 -0.946132,-0.45539 -2.012771,-0.78183 -2.510852,-0.77859 z m 2.134332,7.02632 c -0.480037,-0.004 -0.748905,0.17356 -1.157366,0.50432 -2.094991,1.69639 0.08757,3.40363 6.1268,4.79353 3.562486,0.81984 8.757916,0.52395 13.019595,-0.7412 3.534306,-1.04924 4.55928,-1.94828 4.050064,-3.553 -0.390617,-1.23079 -1.495532,-1.31826 -4.045906,-0.32122 -1.481472,0.57941 -3.773509,0.94844 -6.736399,1.08529 -3.909995,0.18066 -4.942524,0.0627 -7.978465,-0.91209 -1.812037,-0.58196 -2.698989,-0.85119 -3.278364,-0.85605 z m 2.054985,6.73829 c -1.245958,0 -1.801295,0.53973 -1.801295,1.66398 0,1.32434 0.95106,1.88249 4.640954,2.72447 3.168282,0.72289 8.872965,0.5482 11.97588,-0.36659 1.781223,-0.52522 2.037648,-0.76238 2.159133,-2.00002 0.169852,-1.73 -0.885561,-2.20108 -3.378672,-1.50874 -2.420363,0.67211 -8.486093,0.58797 -11.360195,-0.15753 -0.908133,-0.23554 -1.648622,-0.35577 -2.235813,-0.35592 z" />
  <path
     id="bulb"
     fill="#ee4c2c"
     d="M 49.998147,0 31.985874,18.006171 C 22.079133,27.909501 13.616964,36.396644 13.180883,36.866439 5.8470917,44.766926 1.2353526,55.121757 0.22002083,65.966906 -0.63339979,75.082849 1.0060525,84.243161 4.9609441,92.456592 c 1.6988135,3.528048 3.8253333,6.841652 6.3053069,9.868248 0.04868,-0.0359 0.101102,-0.0666 0.150312,-0.10185 -0.04603,0.0329 -0.0932,0.0645 -0.13886,0.0981 3.171452,3.87057 6.921785,7.26987 11.093927,10.04676 0.0064,0.005 0.01247,0.0102 0.01965,0.0144 0.812299,0.56845 1.332109,1.54559 1.332094,2.61231 v 6.05316 a 6.2881098,6.2881039 0 0 0 -0.0087,0.23499 6.2881098,6.2881039 0 0 0 6.288147,6.28776 6.2881098,6.2881039 0 0 0 6.28777,-6.28776 h 0.0087 v -6.26222 c 1.1e-5,-0.009 0,-0.0174 0,-0.0265 0,-0.66611 -0.04165,-1.32257 -0.122079,-1.96687 -0.08043,-0.64428 -0.199899,-1.27637 -0.355918,-1.89399 -0.273033,-1.08097 -0.658204,-2.11723 -1.142108,-3.09603 -0.06913,-0.13974 -0.140183,-0.27844 -0.213241,-0.4158 -0.07313,-0.13735 -0.14846,-0.2733 -0.225449,-0.40817 -0.07703,-0.13489 -0.156056,-0.26857 -0.2369,-0.40092 -0.08092,-0.13236 -0.163729,-0.26319 -0.248353,-0.39292 -0.08466,-0.12974 -0.171439,-0.25788 -0.259804,-0.38491 -0.08833,-0.12703 -0.178507,-0.25263 -0.270463,-0.3769 -0.367899,-0.49733 -0.764765,-0.97215 -1.187523,-1.42211 -0.105638,-0.1124 -0.213052,-0.22299 -0.321978,-0.33224 -0.65373,-0.6562 -1.36484,-1.25522 -2.125564,-1.78834 -0.163389,-0.11452 -0.329196,-0.22581 -0.497053,-0.33417 -0.666587,-0.44686 -1.321004,-0.90617 -1.945125,-1.39198 -3.169623,-2.467355 -5.942888,-5.407815 -8.115775,-8.605592 -3.120228,-4.591968 -5.138567,-9.687482 -6.036393,-15.237823 -0.342161,-2.115351 -0.407852,-3.04447 -0.409334,-5.78539 -0.0025,-2.679806 0.03851,-3.307702 0.344882,-5.451961 0.938588,-6.5693 3.686141,-12.893499 7.844556,-18.055002 1.14684,-1.423459 2.71546,-3.024496 15.464835,-15.786005 L 49.997867,17.696209 V 8.8480081 Z M 67.56145,20.014987 c -1.22511,0.01739 -2.450372,0.376441 -3.495811,1.062775 -1.29727,0.85164 -2.318569,2.268926 -2.735507,3.796001 -0.20674,0.757265 -0.222085,2.418921 -0.02948,3.177648 0.642803,2.531071 2.62101,4.404503 5.159393,4.88662 0.736988,0.139842 2.126402,0.08946 2.840048,-0.102992 1.149562,-0.310034 2.15162,-0.899788 2.981959,-1.754387 1.39861,-1.439456 2.035739,-3.251239 1.834124,-5.216231 -0.237807,-2.317051 -1.634731,-4.262091 -3.78115,-5.264686 -0.868377,-0.40561 -1.821191,-0.598467 -2.774047,-0.584792 z m 17.763921,15.316777 -4.40636,4.405978 c -2.423564,2.423309 -4.398687,4.425178 -4.389201,4.448724 0.0087,0.02343 0.422143,0.485083 0.917439,1.025392 3.112779,3.395855 5.271795,6.722598 7.036985,10.844053 1.466467,3.423971 2.41399,7.192127 2.838892,11.287694 0.118942,1.144821 0.119433,5.625968 0,6.730648 -0.538061,5.013081 -1.721094,9.156912 -3.814675,13.359476 -1.850339,3.714237 -4.056073,6.764663 -7.065218,9.771765 -1.909534,1.908167 -6.044784,4.935456 -6.044784,4.935456 0,0 0.06112,-0.0295 0.07778,-0.0378 -0.03061,0.0212 -0.06172,0.0419 -0.09233,0.0633 -0.760724,0.53309 -1.471823,1.13215 -2.125552,1.78834 -0.108889,0.10927 -0.216303,0.21983 -0.321978,0.33227 -0.422759,0.44994 -0.819613,0.92475 -1.187523,1.42211 -0.09196,0.12431 -0.182173,0.24986 -0.270463,0.37689 -0.08833,0.12704 -0.175143,0.25516 -0.259767,0.38491 -0.08466,0.1297 -0.167509,0.26055 -0.248353,0.39291 -0.08081,0.13231 -0.159873,0.26607 -0.2369,0.40093 -0.07703,0.1349 -0.152353,0.27081 -0.225449,0.40816 -0.07302,0.13735 -0.144189,0.27606 -0.213241,0.41581 -0.483904,0.97878 -0.869102,2.01507 -1.142135,3.09602 -0.156018,0.61764 -0.275489,1.24969 -0.35588,1.89399 -0.08043,0.64427 -0.122078,1.30076 -0.122078,1.96687 0,0.009 -3.8e-5,0.0174 0,0.0265 v 6.2622 h 0.0087 a 6.2881098,6.2881039 0 0 0 6.287769,6.28777 6.2881098,6.2881039 0 0 0 6.288148,-6.28777 6.2881098,6.2881039 0 0 0 -0.0087,-0.23497 v -6.05317 c -2.7e-5,-1.06673 0.519783,-2.04385 1.332094,-2.61231 0.0076,-0.005 0.01285,-0.0102 0.01965,-0.0144 4.172143,-2.7769 7.92249,-6.17623 11.093928,-10.0468 C 94.904797,94.795542 98.825828,85.464961 99.777134,75.40701 101.03141,62.145613 96.955326,48.938452 88.462331,38.745421 87.598759,37.708955 86.316993,36.296045 85.674557,35.671909 Z" />
</svg>
