<?xml version="1.0" encoding="UTF-8" standalone="no"?>
<svg
   id="banner"
   width="1280"
   height="360"
   version="1.1"
   viewBox="0 0 1280 360"
   xmlns="http://www.w3.org/2000/svg"
   xmlns:svg="http://www.w3.org/2000/svg">
  <path
     id="lmpe"
     fill="#1a1a1a"
     d="M 200 110 L 200 310 L 327.88672 310 L 327.88672 286.35938 L 226.88086 286.35938 L 226.88086 110 L 200 110 z M 552.83203 110 L 552.83203 310 L 577.94727 310 L 577.94727 137.66992 L 633.74609 254.92969 L 649.76562 254.92969 L 705.9707 137.66992 L 705.9707 310 L 732.85156 310 L 732.85156 110 L 695.51758 110 L 643.38477 221.34961 L 589.48828 110 L 552.83203 110 z M 779.1543 110 L 779.1543 310 L 806.03516 310 L 806.03516 235.45312 L 832.91602 235.45312 C 847.39715 235.45312 859.38931 233.75234 868.89258 230.34961 C 878.39578 226.85738 886.6325 221.6626 893.60156 214.76758 C 899.21299 209.21573 903.55753 202.68002 906.63477 195.1582 C 909.80252 187.5468 911.38672 179.30835 911.38672 170.44336 C 911.38672 158.80244 909.25969 149.17585 905.00586 141.56445 C 900.84253 133.95311 894.91384 127.59629 887.2207 122.49219 C 880.70424 118.19401 873.23751 115.05985 864.82031 113.08984 C 856.40311 111.0303 846.12989 110 834.00195 110 L 779.1543 110 z M 946.81836 110 L 946.81836 310 L 1080 310 L 1080 286.35938 L 973.69922 286.35938 L 973.69922 212.08203 L 1080 212.08203 L 1080 188.44141 L 973.69922 188.44141 L 973.69922 133.64062 L 1080 133.64062 L 1080 110 L 946.81836 110 z M 806.03516 132.83398 L 832.64453 132.83398 C 841.15219 132.83398 848.16656 133.46121 853.6875 134.71484 C 859.29895 135.87894 864.27675 137.84909 868.62109 140.625 C 873.599 143.84871 877.31021 148.01118 879.75391 153.11523 C 882.1976 158.21929 883.41992 164.22021 883.41992 171.11523 C 883.41992 177.02521 882.51327 182.3537 880.70312 187.09961 C 878.98349 191.8455 875.99798 196.36588 871.74414 200.66406 C 867.49034 204.8727 861.96971 207.96359 855.18164 209.93359 C 848.39364 211.81405 839.5679 212.75391 828.70703 212.75391 L 806.03516 212.75391 L 806.03516 132.83398 z" />
  <path
     id="name"
     fill="#1a1a1a"
     d="M 417.49414 50 C 413.63787 50 410.98641 52.168715 410.8418 57.953125 L 410.79297 61.423828 L 407.4668 62.195312 L 407.27344 64.076172 L 410.8418 64.316406 L 410.8418 83.548828 L 413.78125 83.548828 L 413.78125 64.220703 L 420.57812 64.220703 L 420.72266 61.568359 L 413.78125 61.568359 L 413.78125 57.90625 C 413.78125 54.29099 414.98694 52.748047 417.44531 52.748047 C 418.6504 52.748047 419.80609 53.133823 420.81836 53.664062 C 420.86656 53.712263 421.49477 51.013044 421.54297 50.964844 C 420.5307 50.434604 418.98845 50 417.49414 50 z M 235.71875 50.433594 L 232.73047 51.060547 L 232.73047 83.548828 L 235.71875 83.548828 L 235.71875 72.558594 L 235.81445 72.558594 L 245.74414 83.548828 L 249.55273 83.548828 L 238.90039 71.980469 L 249.50391 61.472656 L 245.74414 61.472656 L 235.81445 71.642578 L 235.71875 71.642578 L 235.71875 50.433594 z M 278.8125 50.433594 L 275.82422 51.060547 L 275.82422 83.550781 L 278.8125 83.550781 L 278.8125 50.433594 z M 298.81641 50.433594 L 295.82812 51.060547 L 295.82812 83.550781 L 298.81641 83.550781 L 298.81641 66.824219 C 300.69634 64.944289 303.10733 63.689453 305.66211 63.689453 C 308.89174 63.689453 310.38477 65.42498 310.38477 69.28125 L 310.38477 83.550781 L 313.37305 83.550781 L 313.37305 68.414062 C 313.37305 63.593722 310.77057 60.845703 306.48047 60.845703 C 304.0221 60.845703 301.13017 62.051474 298.81641 64.365234 L 298.81641 50.433594 z M 389.19727 50.433594 L 386.20898 51.060547 L 386.20898 62.195312 C 384.71467 61.472262 382.7393 60.990234 380.85938 60.990234 C 374.49653 60.990234 369.91602 65.860218 369.91602 72.705078 C 369.91602 79.453558 373.8216 84.175781 379.79883 84.175781 C 382.54642 84.175781 384.71467 82.826262 386.20898 81.476562 L 386.20898 83.550781 L 389.19727 83.550781 L 389.19727 50.433594 z M 686.22656 50.433594 L 683.23828 51.060547 L 683.23828 62.195312 C 681.74397 61.472262 679.76665 60.990234 677.88672 60.990234 C 671.52387 60.990234 666.94531 65.860218 666.94531 72.705078 C 666.94531 79.453558 670.84895 84.175781 676.82617 84.175781 C 679.57376 84.175781 681.74202 82.826262 683.23633 81.476562 L 683.23633 83.550781 L 686.22656 83.550781 L 686.22656 50.433594 z M 224.19727 52.072266 C 222.84757 52.072266 222.17383 53.084679 222.17383 54.193359 C 222.17383 55.350239 222.84757 56.412109 224.19727 56.412109 C 225.54696 56.412109 226.22266 55.350239 226.22266 54.193359 C 226.22266 53.084679 225.54696 52.072266 224.19727 52.072266 z M 287.29492 52.072266 C 285.94523 52.072266 285.27148 53.084679 285.27148 54.193359 C 285.27148 55.350239 285.94523 56.412109 287.29492 56.412109 C 288.64462 56.412109 289.32031 55.350239 289.32031 54.193359 C 289.32031 53.084679 288.64462 52.072266 287.29492 52.072266 z M 618.54883 52.072266 C 617.19913 52.072266 616.52344 53.084679 616.52344 54.193359 C 616.52344 55.350239 617.19913 56.412109 618.54883 56.412109 C 619.89852 56.412109 620.57422 55.350239 620.57422 54.193359 C 620.57422 53.084679 619.89852 52.072266 618.54883 52.072266 z M 825.38867 52.072266 C 824.03897 52.072266 823.36328 53.084679 823.36328 54.193359 C 823.36328 55.350239 824.03897 56.412109 825.38867 56.412109 C 826.73836 56.412109 827.41406 55.350239 827.41406 54.193359 C 827.41406 53.084679 826.73836 52.072266 825.38867 52.072266 z M 943.87305 52.072266 C 942.52336 52.072266 941.84766 53.084679 941.84766 54.193359 C 941.84766 55.350239 942.52336 56.412109 943.87305 56.412109 C 945.22275 56.412109 945.89648 55.350239 945.89648 54.193359 C 945.89648 53.084679 945.22275 52.072266 943.87305 52.072266 z M 1028.3262 52.072266 C 1026.9765 52.072266 1026.3008 53.084679 1026.3008 54.193359 C 1026.3008 55.350239 1026.9765 56.412109 1028.3262 56.412109 C 1029.6759 56.412109 1030.3496 55.350239 1030.3496 54.193359 C 1030.3496 53.084679 1029.6759 52.072266 1028.3262 52.072266 z M 700.25391 53.421875 L 700.25391 83.548828 L 703.33789 83.548828 L 703.33789 72.945312 L 707.43555 72.896484 C 714.95528 72.751874 719.58398 69.426116 719.58398 62.822266 C 719.58398 57.278866 715.7758 53.421875 707.82227 53.421875 L 700.25391 53.421875 z M 883.76367 53.421875 L 883.76367 83.550781 L 901.98438 83.550781 L 901.98438 80.705078 L 886.84766 80.705078 L 886.84766 69.859375 L 899.47852 69.859375 L 899.47852 67.064453 L 886.84766 67.064453 L 886.84766 56.267578 L 901.98438 56.267578 L 901.98438 53.421875 L 883.76367 53.421875 z M 200 53.423828 L 200 83.550781 L 217.98047 83.550781 L 217.98047 80.658203 L 203.08594 80.658203 L 203.08594 53.423828 L 200 53.423828 z M 501.94531 53.423828 L 490.52148 83.550781 L 493.6543 83.550781 L 496.83594 74.921875 L 510.47852 74.921875 L 513.6582 83.550781 L 516.79297 83.550781 L 505.56055 53.423828 L 501.94531 53.423828 z M 521.66016 53.423828 L 520.64844 83.550781 L 523.68555 83.550781 L 524.21484 57.183594 L 534.19336 83.357422 L 537.56836 83.357422 L 547.44922 57.230469 L 547.93164 83.550781 L 551.06445 83.550781 L 550.09961 53.423828 L 546.00391 53.423828 L 535.97656 80.03125 L 525.80664 53.423828 L 521.66016 53.423828 z M 703.33789 56.265625 L 707.72461 56.265625 C 713.36441 56.265625 716.40234 58.676687 716.40234 62.966797 C 716.40234 67.642527 713.36511 69.859296 707.62891 70.003906 L 703.33789 70.101562 L 703.33789 56.265625 z M 601.87109 56.412109 L 601.72656 61.423828 L 598.40039 62.195312 L 598.25586 64.076172 L 601.63086 64.267578 L 601.29297 77.332031 C 601.14836 81.959561 602.9788 84.273437 607.2207 84.273438 C 608.81141 84.273438 610.59616 83.838284 612.13867 83.115234 L 611.60742 80.513672 C 610.25772 81.092112 608.85954 81.574219 607.36523 81.574219 C 605.09967 81.574219 604.04032 80.175324 604.13672 77.427734 L 604.47461 64.220703 L 611.80078 64.220703 L 611.94531 61.568359 L 604.57031 61.568359 L 604.71484 56.412109 L 601.87109 56.412109 z M 769.13672 56.412109 L 768.99219 61.423828 L 765.66602 62.195312 L 765.52148 64.076172 L 768.89453 64.267578 L 768.55664 77.332031 C 768.41203 81.959561 770.24443 84.273437 774.48633 84.273438 C 776.07704 84.273438 777.85983 83.838284 779.40234 83.115234 L 778.87305 80.513672 C 777.52335 81.092112 776.12517 81.574219 774.63086 81.574219 C 772.3653 81.574219 771.30594 80.175324 771.40234 77.427734 L 771.73828 64.220703 L 779.06641 64.220703 L 779.21094 61.568359 L 771.83594 61.568359 L 771.98047 56.412109 L 769.13672 56.412109 z M 927.19531 56.412109 L 927.05078 61.423828 L 923.72461 62.195312 L 923.58008 64.076172 L 926.95312 64.267578 L 926.61719 77.332031 C 926.47257 81.959561 928.30302 84.273437 932.54492 84.273438 C 934.13564 84.273438 935.92038 83.838284 937.46289 83.115234 L 936.93164 80.513672 C 935.58195 81.092112 934.18376 81.574219 932.68945 81.574219 C 930.42389 81.574219 929.36453 80.175324 929.46094 77.427734 L 929.79883 64.220703 L 937.125 64.220703 L 937.26953 61.568359 L 929.89453 61.568359 L 930.03906 56.412109 L 927.19531 56.412109 z M 1011.6426 56.412109 L 1011.498 61.423828 L 1008.1719 62.195312 L 1008.0273 64.076172 L 1011.4023 64.267578 L 1011.0645 77.332031 C 1010.9199 81.959561 1012.7522 84.273437 1016.9941 84.273438 C 1018.5848 84.273438 1020.3677 83.838284 1021.9102 83.115234 L 1021.3809 80.513672 C 1020.0312 81.092112 1018.633 81.574219 1017.1387 81.574219 C 1014.8731 81.574219 1013.8118 80.175324 1013.9082 77.427734 L 1014.2461 64.220703 L 1021.5723 64.220703 L 1021.7168 61.568359 L 1014.3418 61.568359 L 1014.4863 56.412109 L 1011.6426 56.412109 z M 503.68164 56.458984 L 509.41797 72.125 L 497.89648 72.125 L 503.68164 56.458984 z M 225.69141 60.845703 L 222.70312 61.472656 L 222.70312 83.550781 L 225.69141 83.550781 L 225.69141 60.845703 z M 262.13281 60.845703 C 256.15559 60.845703 251.7207 65.761865 251.7207 72.703125 C 251.7207 79.451605 256.0121 84.175781 262.375 84.175781 C 265.12259 84.175781 267.58101 83.451802 269.46094 82.294922 L 268.88281 79.548828 C 267.19569 80.657498 264.92907 81.380859 262.4707 81.380859 C 257.84317 81.380859 254.90242 77.860816 254.75781 72.847656 L 254.75781 72.607422 L 269.70117 72.509766 C 270.03859 71.545696 270.18359 70.149068 270.18359 68.992188 C 270.18359 63.979037 267.00136 60.845703 262.13281 60.845703 z M 288.79102 60.845703 L 285.80078 61.472656 L 285.80078 83.550781 L 288.79102 83.550781 L 288.79102 60.845703 z M 329.61914 60.845703 C 323.4491 60.845703 318.72461 65.520924 318.72461 72.558594 C 318.72461 79.644494 323.20687 84.175781 329.37695 84.175781 C 335.49878 84.175781 340.22266 79.500561 340.22266 72.462891 C 340.22266 65.376991 335.78922 60.845703 329.61914 60.845703 z M 355.21484 60.845703 C 349.0448 60.845703 344.32031 65.520924 344.32031 72.558594 C 344.32031 79.644494 348.80257 84.175781 354.97266 84.175781 C 361.09449 84.175781 365.82031 79.500561 365.82031 72.462891 L 365.81836 72.462891 C 365.81836 65.376991 361.38483 60.845703 355.21484 60.845703 z M 427.56641 60.845703 L 424.57812 61.472656 L 424.57812 83.550781 L 427.56641 83.550781 L 427.56641 69.378906 C 429.30174 65.378026 431.4714 63.689453 433.78516 63.689453 C 435.08665 63.689453 436.19609 64.075857 437.16016 64.654297 L 437.93164 61.859375 C 436.91937 61.280935 435.56853 60.845703 434.07422 60.845703 C 431.18202 60.845703 429.06072 62.678113 427.56641 65.570312 L 427.56641 60.845703 z M 450.22266 60.845703 C 444.24544 60.845703 439.81055 65.761865 439.81055 72.703125 C 439.81055 79.451605 444.10195 84.175781 450.46484 84.175781 C 453.21243 84.175781 455.67084 83.451802 457.55078 82.294922 L 456.97266 79.548828 C 455.28554 80.657498 453.01893 81.380859 450.56055 81.380859 C 445.93303 81.380859 442.99227 77.860816 442.84766 72.847656 L 442.84766 72.607422 L 457.79102 72.509766 C 458.12845 71.545696 458.27344 70.149068 458.27344 68.992188 C 458.27344 63.979037 455.0912 60.845703 450.22266 60.845703 z M 472.87891 60.845703 C 466.90169 60.845703 462.4668 65.761865 462.4668 72.703125 C 462.4668 79.451605 466.75624 84.175781 473.11914 84.175781 C 475.86673 84.175781 478.32515 83.451802 480.20508 82.294922 L 479.62695 79.548828 C 477.93983 80.657498 475.67517 81.380859 473.2168 81.380859 C 468.58927 81.380859 465.64852 77.860816 465.50391 72.847656 L 465.50391 72.607422 L 480.44727 72.509766 C 480.78469 71.545696 480.92773 70.149068 480.92773 68.992188 C 480.92773 63.979037 477.74746 60.845703 472.87891 60.845703 z M 567.11719 60.845703 C 560.94716 60.845703 556.22266 65.520924 556.22266 72.558594 C 556.22266 79.644494 560.70492 84.175781 566.875 84.175781 C 572.99683 84.175781 577.7207 79.500561 577.7207 72.462891 C 577.7207 65.376991 573.28728 60.845703 567.11719 60.845703 z M 586.25391 60.845703 L 583.26562 61.472656 L 583.26562 83.550781 L 586.25391 83.550781 L 586.25391 69.378906 C 587.98923 65.378026 590.15694 63.689453 592.4707 63.689453 C 593.77219 63.689453 594.88163 64.075857 595.8457 64.654297 L 596.61719 61.859375 C 595.60492 61.280935 594.25603 60.845703 592.76172 60.845703 C 589.86952 60.845703 587.74822 62.678113 586.25391 65.570312 L 586.25391 60.845703 z M 620.04297 60.845703 L 617.05469 61.472656 L 617.05469 83.550781 L 620.04297 83.550781 L 620.04297 60.845703 z M 654.70117 60.845703 C 648.72394 60.845703 644.28906 65.761865 644.28906 72.703125 C 644.28906 79.451605 648.58046 84.175781 654.94336 84.175781 C 657.69096 84.175781 660.14937 83.451802 662.0293 82.294922 L 661.44922 79.548828 C 659.7621 80.657498 657.49743 81.380859 655.03906 81.380859 C 650.41153 81.380859 647.47078 77.860816 647.32617 72.847656 L 647.32617 72.607422 L 662.26953 72.509766 C 662.60695 71.545696 662.75195 70.149068 662.75195 68.992188 C 662.75195 63.979037 659.56971 60.845703 654.70117 60.845703 z M 733.61133 60.845703 C 727.44129 60.845703 722.7168 65.520924 722.7168 72.558594 C 722.7168 79.644494 727.19906 84.175781 733.36914 84.175781 C 739.49097 84.175781 744.21484 79.500561 744.21484 72.462891 C 744.21484 65.376991 739.78141 60.845703 733.61133 60.845703 z M 755.6875 60.845703 C 751.542 60.845703 748.2168 63.208104 748.2168 67.208984 C 748.2168 71.065264 751.59014 72.606949 754.62695 73.474609 C 757.37455 74.390469 760.16992 75.066235 760.16992 77.765625 C 760.16992 80.175795 757.85627 81.476562 755.20508 81.476562 C 752.93952 81.476562 750.57721 80.752662 748.69727 79.451172 L 747.87891 82.199219 C 749.75884 83.404309 752.45819 84.175781 755.10938 84.175781 C 759.54408 84.175781 763.01367 81.524318 763.01367 77.523438 C 763.01367 73.426147 759.64103 71.980313 756.50781 71.064453 C 753.6638 70.148583 751.06055 69.426502 751.06055 66.919922 C 751.06055 64.798972 752.79475 63.544922 755.49414 63.544922 C 757.42228 63.544922 759.6396 64.171324 761.51953 65.183594 L 762.38672 62.484375 C 760.50679 61.520305 758.14587 60.845703 755.6875 60.845703 z M 792.99609 60.845703 C 787.01887 60.845703 782.58398 65.761865 782.58398 72.703125 C 782.58398 79.451605 786.87538 84.175781 793.23828 84.175781 C 795.98587 84.175781 798.44429 83.451802 800.32422 82.294922 L 799.74414 79.548828 C 798.05702 80.657498 795.79235 81.380859 793.33398 81.380859 C 788.70645 81.380859 785.7657 77.860816 785.62109 72.847656 L 785.62109 72.607422 L 800.56445 72.509766 C 800.90187 71.545696 801.04687 70.149068 801.04688 68.992188 C 801.04688 63.979037 797.86464 60.845703 792.99609 60.845703 z M 809.67578 60.845703 L 806.6875 61.472656 L 806.6875 83.550781 L 809.67578 83.550781 L 809.67578 69.378906 C 811.4111 65.378026 813.57881 63.689453 815.89258 63.689453 C 817.19407 63.689453 818.30351 64.075857 819.26758 64.654297 L 820.03906 61.859375 C 819.02679 61.280935 817.67789 60.845703 816.18359 60.845703 C 813.29138 60.845703 811.17008 62.678113 809.67578 65.570312 L 809.67578 60.845703 z M 826.88281 60.845703 L 823.89453 61.472656 L 823.89453 83.550781 L 826.88281 83.550781 L 826.88281 60.845703 z M 843.36914 60.845703 C 837.1991 60.845703 832.47461 65.520924 832.47461 72.558594 C 832.47461 79.644494 836.95687 84.175781 843.12695 84.175781 C 849.24878 84.175781 853.97266 79.500561 853.97266 72.462891 C 853.97266 65.376991 849.53922 60.845703 843.36914 60.845703 z M 862.50586 60.845703 L 859.51758 61.472656 L 859.51758 83.550781 L 862.50586 83.550781 L 862.50586 69.378906 C 864.24118 65.378026 866.40889 63.689453 868.72266 63.689453 C 870.02415 63.689453 871.13359 64.075857 872.09766 64.654297 L 872.86914 61.859375 C 871.85687 61.280935 870.50797 60.845703 869.01367 60.845703 C 866.12146 60.845703 864.00016 62.678113 862.50586 65.570312 L 862.50586 60.845703 z M 913.74609 60.845703 C 909.6006 60.845703 906.27344 63.208104 906.27344 67.208984 C 906.27344 71.065264 909.64873 72.606949 912.68555 73.474609 C 915.43314 74.390469 918.22852 75.066235 918.22852 77.765625 C 918.22852 80.175795 915.91485 81.476562 913.26367 81.476562 C 910.99811 81.476562 908.63579 80.752662 906.75586 79.451172 L 905.93555 82.199219 C 907.81548 83.404309 910.51483 84.175781 913.16602 84.175781 C 917.60073 84.175781 921.07227 81.524318 921.07227 77.523438 C 921.07227 73.426147 917.69767 71.980313 914.56445 71.064453 C 911.72045 70.148583 909.11719 69.426502 909.11719 66.919922 C 909.11719 64.798972 910.85334 63.544922 913.55273 63.544922 C 915.48086 63.544922 917.69819 64.171324 919.57812 65.183594 L 920.44531 62.484375 C 918.56538 61.520305 916.20446 60.845703 913.74609 60.845703 z M 945.36719 60.845703 L 942.37891 61.472656 L 942.37891 83.550781 L 945.36719 83.550781 L 945.36719 60.845703 z M 955.39453 60.845703 L 952.4043 61.472656 L 952.4043 83.550781 L 955.39453 83.550781 L 955.39453 66.244141 C 957.08164 64.749831 959.20186 63.689453 961.51562 63.689453 C 964.74524 63.689453 966.19141 65.473808 966.19141 69.330078 L 966.19141 83.550781 L 969.17969 83.550781 L 969.17969 68.509766 C 969.17969 67.979526 969.13218 66.872576 969.08398 66.535156 C 970.7711 64.944446 972.93881 63.689453 975.30078 63.689453 C 978.53041 63.689453 979.97656 65.473808 979.97656 69.330078 L 979.97656 83.550781 L 982.9668 83.550781 L 982.9668 68.462891 C 982.9668 63.594351 980.41182 60.845703 976.16992 60.845703 C 973.61514 60.845703 970.81774 62.051396 968.35938 64.509766 C 967.25069 62.051396 965.1304 60.845703 962.38281 60.845703 C 960.11725 60.845703 957.66009 61.810062 955.39453 63.882812 L 955.39453 60.845703 z M 996.36328 60.845703 C 993.47107 60.845703 990.0961 62.100147 988.16797 63.498047 L 988.84375 66.292969 C 990.77189 64.895069 993.66405 63.642578 996.07422 63.642578 C 999.73768 63.642578 1001.2793 65.425844 1001.2793 68.896484 L 1001.2793 70.197266 C 991.01201 70.727496 987.87891 74.102007 987.87891 78.054688 C 987.87891 81.573538 990.82005 84.175781 994.86914 84.175781 C 997.52033 84.175781 999.83387 82.778368 1001.3281 80.898438 L 1001.4727 80.898438 C 1001.8101 83.067588 1003.4008 84.22407 1006.293 84.03125 L 1006.4863 81.574219 C 1004.5581 81.622419 1004.2695 80.946179 1004.2695 79.355469 L 1004.2695 68.751953 C 1004.3175 63.160363 1001.521 60.845703 996.36328 60.845703 z M 1029.8203 60.845703 L 1026.832 61.472656 L 1026.832 83.550781 L 1029.8203 83.550781 L 1029.8203 60.845703 z M 1046.3047 60.845703 C 1040.1346 60.845703 1035.4121 65.520924 1035.4121 72.558594 C 1035.4121 79.644494 1039.8945 84.175781 1046.0645 84.175781 C 1052.1864 84.175781 1056.9102 79.500561 1056.9102 72.462891 C 1056.9102 65.376991 1052.4747 60.845703 1046.3047 60.845703 z M 1065.4414 60.845703 L 1062.4531 61.472656 L 1062.4531 83.550781 L 1065.4414 83.550781 L 1065.4414 66.824219 C 1067.3214 64.944289 1069.6842 63.689453 1072.1426 63.689453 C 1075.4686 63.689453 1077.0098 65.42498 1077.0098 69.28125 L 1077.0098 83.550781 L 1079.998 83.550781 L 1079.998 68.414062 C 1079.998 63.593722 1077.3956 60.845703 1072.9609 60.845703 C 1070.6471 60.845703 1067.7552 62.147178 1065.4414 64.460938 L 1065.4414 60.845703 z M 625.05664 61.472656 L 625.05664 64.125 L 637.78125 64.125 L 624.62305 81.1875 L 624.62305 83.550781 L 641.34961 83.550781 L 641.34961 80.898438 L 628.18945 80.898438 L 641.34961 63.787109 L 641.34961 61.472656 L 625.05664 61.472656 z M 261.94141 63.544922 C 265.41205 63.544922 267.24219 65.809982 267.24219 69.232422 C 267.24219 69.473432 267.24351 69.956246 267.19531 70.197266 L 254.95117 70.244141 C 255.4814 66.580681 257.94053 63.544922 261.94141 63.544922 z M 329.47461 63.544922 C 334.15034 63.544922 337.2832 67.159814 337.2832 72.558594 C 337.2832 77.764564 334.19721 81.476563 329.52148 81.476562 C 324.84575 81.476562 321.71289 77.861671 321.71289 72.462891 C 321.71289 67.256921 324.79888 63.544922 329.47461 63.544922 z M 355.07031 63.544922 C 359.74604 63.544922 362.87891 67.159814 362.87891 72.558594 C 362.87891 77.764564 359.79292 81.476563 355.11719 81.476562 C 350.44146 81.476562 347.30859 77.861671 347.30859 72.462891 C 347.30859 67.256921 350.39458 63.544922 355.07031 63.544922 z M 450.03125 63.544922 C 453.50189 63.544922 455.33203 65.809982 455.33203 69.232422 C 455.33203 69.473432 455.33336 69.956246 455.28516 70.197266 L 443.04102 70.244141 C 443.57126 66.580681 446.03036 63.544922 450.03125 63.544922 z M 472.68555 63.544922 C 476.15619 63.544922 477.98828 65.809982 477.98828 69.232422 C 477.98828 69.473432 477.98765 69.956246 477.93945 70.197266 L 465.69531 70.244141 C 466.22554 66.580681 468.68467 63.544922 472.68555 63.544922 z M 566.97266 63.544922 C 571.64839 63.544922 574.78125 67.159814 574.78125 72.558594 C 574.78125 77.764564 571.69526 81.476563 567.01953 81.476562 C 562.3438 81.476562 559.21094 77.861671 559.21094 72.462891 C 559.21094 67.256921 562.29693 63.544922 566.97266 63.544922 z M 654.50781 63.544922 C 657.97846 63.544922 659.81055 65.809982 659.81055 69.232422 C 659.81055 69.473432 659.81187 69.956246 659.76367 70.197266 L 647.51953 70.244141 C 648.04977 66.580681 650.50693 63.544922 654.50781 63.544922 z M 733.4668 63.544922 C 738.14253 63.544922 741.27539 67.159814 741.27539 72.558594 C 741.27539 77.764564 738.1894 81.476563 733.51367 81.476562 C 728.83794 81.476562 725.70508 77.861671 725.70508 72.462891 C 725.70508 67.256921 728.79107 63.544922 733.4668 63.544922 z M 792.80273 63.544922 C 796.27337 63.544922 798.10547 65.809982 798.10547 69.232422 C 798.10547 69.473432 798.10679 69.956246 798.05859 70.197266 L 785.81445 70.244141 C 786.34468 66.580681 788.80185 63.544922 792.80273 63.544922 z M 843.22461 63.544922 C 847.90034 63.544922 851.0332 67.159814 851.0332 72.558594 C 851.0332 77.764564 847.94721 81.476563 843.27148 81.476562 C 838.59575 81.476562 835.46289 77.861671 835.46289 72.462891 C 835.46289 67.256921 838.54888 63.544922 843.22461 63.544922 z M 1046.1602 63.544922 C 1050.836 63.544922 1053.9707 67.159814 1053.9707 72.558594 C 1053.9707 77.764564 1050.8848 81.476563 1046.209 81.476562 C 1041.5333 81.476562 1038.4004 77.861671 1038.4004 72.462891 C 1038.4004 67.256921 1041.4845 63.544922 1046.1602 63.544922 z M 380.71484 63.689453 C 382.83579 63.689453 384.85928 64.268273 386.20898 65.376953 L 386.20898 78.970703 C 384.66647 80.465013 382.59368 81.429688 380.32812 81.429688 C 375.84521 81.429688 373.00195 77.81401 373.00195 72.65625 C 373.00195 67.45028 375.9427 63.689453 380.71484 63.689453 z M 677.74219 63.689453 C 679.86314 63.689453 681.88858 64.268273 683.23828 65.376953 L 683.23828 78.970703 C 681.69577 80.465013 679.62298 81.429688 677.35742 81.429688 C 672.87451 81.429688 670.0293 77.81401 670.0293 72.65625 C 670.0293 67.45028 672.97006 63.689453 677.74219 63.689453 z M 394.30664 70.4375 L 394.30664 73.234375 L 405.20117 73.234375 L 405.20117 70.4375 L 394.30664 70.4375 z M 1001.2812 72.222656 L 1001.2812 78.681641 C 999.93156 80.224151 997.90688 81.574219 995.54492 81.574219 C 992.89373 81.574219 991.01367 80.078757 991.01367 77.716797 C 991.01367 74.776387 993.71332 73.138516 1001.2812 72.222656 z" />
  <path
    id="filament"
    fill="#1a1a1a"
    d="m 461.83584,218.75226 c -2.70193,0 -6.92109,2.53297 -9.37417,5.63035 -2.50497,3.16295 -5.95504,10.85325 -6.71361,14.96622 l -0.48571,2.64321 h -10.36706 l -1.15621,-4.04884 c -4.72781,-16.54759 -15.88225,-24.20722 -22.41855,-15.39149 -5.03195,6.78674 -4.01636,14.5477 2.50983,19.14367 3.65171,2.57142 5.8822,3.48875 11.51492,4.74509 4.1396,0.9236 4.23398,0.99705 4.71458,3.70491 0.27048,1.5191 0.50368,16.12765 0.52875,32.4638 0.035,26.02718 0.17844,29.83892 1.14787,30.8087 1.42489,1.42556 2.72167,1.39967 4.19897,-0.0771 1.08052,-1.08052 1.15724,-3.84508 0.8727,-32.21436 -0.16938,-17.06911 -0.52448,-31.5121 -0.78658,-32.09353 -0.39344,-0.87165 0.23142,-1.05333 3.5805,-1.05333 h 4.05725 v 32.66594 c 0,30.3461 0.0877,32.7245 1.23335,33.44709 0.89831,0.56709 1.5649,0.56644 2.46319,0 1.13441,-0.71475 1.26453,-3.31269 1.62038,-32.74251 0.21346,-17.58072 0.64135,-32.52051 0.95406,-33.1983 0.31267,-0.67756 1.29284,-1.22919 2.17903,-1.22919 2.97765,0 10.6559,-2.78295 13.63772,-4.94308 4.07534,-2.95213 5.72196,-5.89229 5.72549,-10.22529 0,-6.3818 -4.90189,-13.0013 -9.63676,-13.0013 z m -43.75026,6.33972 c 0.0332,-0.001 0.0663,0 0.0993,0 3.15879,0 7.36645,6.17609 9.94599,14.6091 0.26692,0.87145 0.22182,1.57229 -0.0952,1.55578 -2.15443,-0.1145 -9.67889,-3.28767 -11.60465,-4.89521 -1.9799,-1.65312 -2.31846,-2.38285 -2.25201,-4.83542 0.0925,-3.54081 1.80688,-6.34755 3.90649,-6.43425 z m 43.37637,0.0946 h 0.004 c 2.00622,-0.0261 3.68773,1.86194 4.14755,5.30856 0.41946,3.1458 -1.31871,5.87097 -4.9383,7.74479 -1.22573,0.63355 -3.76592,1.56191 -5.64768,2.05882 l -3.4256,0.90259 0.43849,-2.20057 c 0.6527,-3.26374 3.45366,-9.01799 5.65605,-11.62201 1.24325,-1.47008 2.56139,-2.17392 3.76534,-2.19222 z m -40.91322,90.8484 c -0.0808,0 -0.15243,0.008 -0.21294,0.0178 -1.58552,0.3119 -2.70761,2.23696 -2.15035,3.68875 0.55819,1.45454 8.31246,5.16431 12.52162,5.99101 8.7503,1.71852 19.29745,0.50872 27.25754,-3.12652 3.51889,-1.60698 3.72947,-1.84757 3.5207,-4.01055 -0.29359,-3.04308 -1.69576,-3.23381 -7.1323,-0.97198 -10.46608,4.35427 -20.31085,4.23284 -29.86725,-0.36844 -1.48354,-0.71405 -3.15603,-1.2259 -3.93702,-1.22083 z m 3.34663,11.01729 c -0.7527,-0.006 -1.17428,0.27213 -1.81475,0.79076 -3.28495,2.65995 0.13731,5.33691 9.60683,7.51627 5.58598,1.28553 13.73242,0.82155 20.41474,-1.16219 5.54179,-1.64523 7.14895,-3.05492 6.3505,-5.57112 -0.61249,-1.92989 -2.34499,-2.06703 -6.34398,-0.50368 -2.32295,0.90852 -5.91687,1.48715 -10.56268,1.70174 -6.13088,0.28328 -7.74989,0.0984 -12.51025,-1.43016 -2.84127,-0.91252 -4.23201,-1.33467 -5.14047,-1.34228 z m 3.22222,10.56564 c -1.95367,0 -2.82443,0.8463 -2.82443,2.60914 0,2.07657 1.49126,2.95174 7.27702,4.27195 4.96787,1.13351 13.91282,0.85959 18.77819,-0.57479 2.79296,-0.82356 3.19504,-1.19541 3.38552,-3.13606 0.26633,-2.71262 -1.38856,-3.45128 -5.29776,-2.36571 -3.79513,1.0539 -13.3062,0.92197 -17.8128,-0.247 -1.42395,-0.36933 -2.58504,-0.55785 -3.50575,-0.55808 z" />
  <path
     id="bulb"
     fill="#ee4c2c"
     d="m 439.8943,110.00033 -28.24326,28.23372 c -15.53378,15.52845 -28.80247,28.83631 -29.48625,29.57295 -11.49939,12.38798 -18.7306,28.62438 -20.32264,45.6296 -1.33817,14.29382 1.23249,28.65722 7.43377,41.5359 2.66374,5.53199 5.99813,10.72773 9.88673,15.47345 0.0763,-0.0563 0.15853,-0.10448 0.23569,-0.15971 -0.0722,0.0516 -0.14615,0.1011 -0.21774,0.15384 4.97284,6.06907 10.85337,11.39918 17.39529,15.75335 0.0101,0.008 0.0196,0.016 0.0308,0.0225 1.27369,0.89134 2.08875,2.42349 2.08873,4.09611 v 9.49139 a 9.8597631,9.8597631 0 0 0 -0.0136,0.36844 9.8597631,9.8597631 0 0 0 9.85983,9.85923 9.8597631,9.8597631 0 0 0 9.85923,-9.85923 h 0.0136 v -9.81917 c 2e-5,-0.0136 0,-0.0273 0,-0.0415 0,-1.04444 -0.0653,-2.07379 -0.19142,-3.08403 -0.12611,-1.01025 -0.31344,-2.00135 -0.55808,-2.9698 -0.42812,-1.69496 -1.03207,-3.31982 -1.79083,-4.85458 -0.10839,-0.2191 -0.21981,-0.43659 -0.33436,-0.65197 -0.11467,-0.21536 -0.23279,-0.42853 -0.3535,-0.64001 -0.12078,-0.21151 -0.2447,-0.42113 -0.37146,-0.62864 -0.12689,-0.20754 -0.25673,-0.41271 -0.38942,-0.61611 -0.13275,-0.20345 -0.26882,-0.40435 -0.40738,-0.60354 -0.13849,-0.19918 -0.2799,-0.39612 -0.42408,-0.59097 -0.57687,-0.77983 -1.19915,-1.52433 -1.86204,-2.22987 -0.16564,-0.17625 -0.33407,-0.34965 -0.50486,-0.52098 -1.02505,-1.0289 -2.14007,-1.96818 -3.33289,-2.80409 -0.25619,-0.17957 -0.51618,-0.3541 -0.77938,-0.52401 -1.04521,-0.70067 -2.07133,-1.42086 -3.04995,-2.18261 -4.96998,-3.86882 -9.31846,-8.47947 -12.72555,-13.49359 -4.89252,-7.20022 -8.05728,-15.19 -9.46507,-23.89295 -0.53651,-3.31687 -0.63951,-4.77373 -0.64184,-9.0715 -0.004,-4.20195 0.0604,-5.18649 0.54078,-8.54869 1.47171,-10.30068 5.77987,-20.21704 12.30027,-28.31029 1.79825,-2.23199 4.25785,-4.74242 24.24888,-24.7525 L 439.89385,137.748 v -13.874 z m 27.53928,31.38355 c -1.92097,0.0273 -3.84218,0.59026 -5.48143,1.66643 -2.03412,1.33538 -3.63552,3.55768 -4.28928,5.95214 -0.32417,1.18739 -0.34823,3.79287 -0.0462,4.98256 1.00792,3.96873 4.10975,6.90627 8.08993,7.66223 1.1556,0.21928 3.33421,0.14028 4.4532,-0.16149 1.80252,-0.48613 3.37375,-1.41087 4.67572,-2.75088 2.19302,-2.25707 3.19204,-5.09795 2.87591,-8.17907 -0.37289,-3.63314 -2.56326,-6.68297 -5.92885,-8.25503 -1.36162,-0.636 -2.85563,-0.9384 -4.34971,-0.91696 z m 27.85385,24.01674 -6.90918,6.90859 c -3.80015,3.79975 -6.89714,6.93869 -6.88227,6.97561 0.0136,0.0367 0.66192,0.76061 1.43854,1.60782 4.88085,5.3247 8.26619,10.54105 11.034,17.0035 2.29943,5.36879 3.78514,11.27727 4.45139,17.69913 0.1865,1.79508 0.18727,8.82153 0,10.55367 -0.84368,7.86053 -2.69868,14.35807 -5.98141,20.9477 -2.90134,5.82393 -6.35993,10.60701 -11.07827,15.32215 -2.99415,2.99201 -9.47823,7.7388 -9.47823,7.7388 0,0 0.0958,-0.0462 0.12196,-0.0593 -0.048,0.0332 -0.0968,0.0657 -0.14478,0.0993 -1.19281,0.83591 -2.30782,1.77521 -3.33287,2.80414 -0.17073,0.17132 -0.33916,0.34467 -0.50486,0.52098 -0.66288,0.70551 -1.28515,1.45003 -1.86203,2.22988 -0.14419,0.19492 -0.28565,0.39179 -0.42409,0.59097 -0.1385,0.19918 -0.27463,0.40008 -0.40732,0.60352 -0.13274,0.20339 -0.26265,0.40856 -0.38941,0.61609 -0.12671,0.20748 -0.25069,0.41721 -0.37146,0.62868 -0.12078,0.21151 -0.23889,0.42462 -0.35351,0.63999 -0.11449,0.21536 -0.22609,0.43286 -0.33436,0.65199 -0.75876,1.53473 -1.36275,3.15962 -1.79087,4.85456 -0.24463,0.96846 -0.43197,1.95953 -0.55802,2.96978 -0.12611,1.01024 -0.19142,2.03961 -0.19142,3.08407 0,0.0136 -6e-5,0.0273 0,0.0415 v 9.81917 h 0.0136 a 9.8597631,9.8597631 0 0 0 9.85923,9.85923 9.8597631,9.8597631 0 0 0 9.85983,-9.85923 9.8597631,9.8597631 0 0 0 -0.0136,-0.36844 v -9.49138 c -4e-5,-1.67263 0.81503,-3.20477 2.08873,-4.09612 0.0118,-0.008 0.0202,-0.016 0.0308,-0.0225 6.54192,-4.35419 12.42247,-9.68434 17.39529,-15.75341 9.73513,-11.8811 15.88331,-26.51148 17.37496,-42.28237 1.96671,-20.7939 -4.4246,-41.50277 -17.74162,-57.48546 -1.35409,-1.62519 -3.3639,-3.84063 -4.37124,-4.81928 z" />
</svg>
